<svg xmlns="http://www.w3.org/2000/svg" viewBox="0 0 62.68 63.59"><title>Unbenannt-3</title><path d="M26.78,31.77l5.9,5.9L6.56,63.8l-5.9-5.9Zm7,4.54-5.9-5.9L38.13,20.19,44,26.1Z" transform="translate(-0.66 -0.2)" style="fill:#9a84bc"/><polygon points="55.64 32.25 57.23 32.25 57.23 26.8 62.68 26.8 62.68 24.98 57.23 24.98 57.23 19.53 55.64 19.53 55.64 24.98 49.97 24.98 49.97 26.8 55.64 26.8 55.64 32.25" style="fill:#9a84bc"/><polygon points="57.46 38.38 57.46 36.57 52.01 36.57 52.01 31.11 50.19 31.11 50.19 36.57 44.74 36.57 44.74 38.38 50.19 38.38 50.19 43.83 52.01 43.83 52.01 38.38 57.46 38.38" style="fill:#9a84bc"/><polygon points="44.29 5.45 38.61 5.45 38.61 0 37.02 0 37.02 5.45 31.57 5.45 31.57 7.27 37.02 7.27 37.02 12.72 38.61 12.72 38.61 7.27 44.29 7.27 44.29 5.45" style="fill:#9a84bc"/><polygon points="32.48 10.67 27.03 10.67 27.03 5.22 25.21 5.22 25.21 10.67 19.76 10.67 19.76 12.49 25.21 12.49 25.21 17.94 27.03 17.94 27.03 12.49 32.48 12.49 32.48 10.67" style="fill:#9a84bc"/></svg>