<?xml version="1.0" encoding="utf-8"?>
<!-- Generator: Adobe Illustrator 19.2.1, SVG Export Plug-In . SVG Version: 6.00 Build 0)  -->
<svg version="1.1" id="Ebene_1" xmlns="http://www.w3.org/2000/svg" xmlns:xlink="http://www.w3.org/1999/xlink" x="0px" y="0px"
	 viewBox="0 0 64 64" style="enable-background:new 0 0 64 64;" xml:space="preserve">
<style type="text/css">
	.st0{fill:#9A84BC;}
</style>
<path class="st0" d="M60.1,0.3C59.7,0,59.5,0,59.1,0L26.7,9.2c-0.4,0.2-0.6,0.4-0.6,1.1v40c-0.4-0.4-1.1-1.1-1.7-1.5
	c-2.3-1.7-5.3-2.6-8.5-2.6S9.7,47,7.4,48.7c-2.3,1.7-3.8,4-3.8,6.4s1.3,4.7,3.8,6.4c2.3,1.7,5.3,2.6,8.5,2.6s6.2-0.9,8.5-2.6
	c2.3-1.7,3.8-4,3.8-6.4V27.5l27.4-7.9c0.6-0.2,0.9-0.6,0.6-1.3c-0.2-0.6-0.6-0.9-1.3-0.6l-27,7.7V22l27.4-7.9
	c0.6-0.2,0.9-0.6,0.6-1.3c-0.2-0.6-0.6-0.9-1.3-0.6l-27,7.7v-8.7L58,2.6v37.8c-0.4-0.4-1.1-1.1-1.7-1.5c-2.3-1.7-5.3-2.6-8.5-2.6
	s-6.2,0.9-8.5,2.6c-2.3,1.7-3.8,4-3.8,6.4s1.3,4.7,3.8,6.4c2.3,1.7,5.3,2.6,8.5,2.6s6.2-0.9,8.5-2.6c2.3-1.7,3.8-4,3.8-6.4V1.1
	C60.5,0.7,60.3,0.5,60.1,0.3L60.1,0.3z M23.3,59.8c-1.9,1.3-4.7,2.1-7.4,2.1s-5.3-0.9-7.4-2.1c-1.9-1.3-2.8-3-2.8-4.7
	c0-1.7,1.1-3.4,2.8-4.7c1.9-1.3,4.7-2.1,7.4-2.1s5.3,0.9,7.4,2.1c1.9,1.3,2.8,3,2.8,4.7C26.1,56.8,25,58.3,23.3,59.8z M55.6,50
	c-1.9,1.3-4.7,2.1-7.4,2.1s-5.3-0.9-7.4-2.1c-1.9-1.3-2.8-3-2.8-4.7c0-1.7,1.1-3.4,2.8-4.7c1.9-1.3,4.7-2.1,7.4-2.1s5.3,0.9,7.4,2.1
	c1.9,1.3,2.8,3,2.8,4.7C58.4,47,57.3,48.7,55.6,50z"/>
</svg>
