<?xml version="1.0" encoding="utf-8"?>
<!-- Generator: Adobe Illustrator 19.2.1, SVG Export Plug-In . SVG Version: 6.00 Build 0)  -->
<svg version="1.1" id="Ebene_1" xmlns="http://www.w3.org/2000/svg" xmlns:xlink="http://www.w3.org/1999/xlink" x="0px" y="0px"
	 viewBox="0 0 1080 1080" style="enable-background:new 0 0 1080 1080;" xml:space="preserve">
<style type="text/css">
	.st0{fill:#9B84BC;}
</style>
<path id="XMLID_749_" class="st0" d="M853.2,979.2c0-10.8,7.2-18,18-18h111.6c10.8,0,18,7.2,18,18s-7.2,18-18,18H871.2
	C860.4,997.2,853.2,990,853.2,979.2z M1080,388.8v183.6l0,0l0,0V756l0,0l0,0v277.2c0,25.2-18,43.2-43.2,43.2H763.2
	c-25.2,0-43.2-18-43.2-43.2v-990C720,18,738,0,763.2,0h273.6c25.2,0,43.2,18,43.2,43.2v158.4l0,0l0,0V388.8L1080,388.8L1080,388.8z
	 M1044,777.6H752.4v259.2c0,3.6,3.6,7.2,7.2,7.2h273.6c3.6,0,7.2-3.6,7.2-7.2V777.6H1044z M1044,590.4H752.4V738H1044V590.4z
	 M1044,406.8H752.4v147.6H1044V406.8z M1044,223.2H752.4v147.6H1044V223.2z M1044,43.2c0-3.6-3.6-7.2-7.2-7.2H763.2
	c-3.6,0-7.2,3.6-7.2,7.2v140.4h288V43.2z M914.4,928.8h64.8c10.8,0,18-7.2,18-18s-7.2-18-18-18h-64.8c-10.8,0-18,7.2-18,18
	S907.2,928.8,914.4,928.8z M21.6,363.6c-18-18-18-43.2,0-61.2L216,108c7.2-7.2,18-14.4,32.4-14.4c10.8,0,21.6,3.6,32.4,14.4
	l111.6,111.6l0,0l0,0L522,349.2l0,0l0,0L658.8,486c7.2,7.2,7.2,18,0,25.2c-3.6,3.6-10.8,7.2-14.4,3.6L435.6,723.6L540,828l90-90
	c7.2-7.2,18-7.2,25.2,0c3.6,3.6,3.6,7.2,3.6,14.4c0,7.2,0,10.8-3.6,14.4l-90,90l90,90c7.2,7.2,7.2,18,0,25.2
	c-3.6,3.6-7.2,3.6-14.4,3.6s-10.8,0-14.4-3.6L21.6,363.6z M507.6,392.4L302.4,597.6L406.8,702L612,496.8L507.6,392.4z M378,259.2
	L172.8,464.4l104.4,104.4l205.2-205.2L378,259.2z M46.8,338.4l100.8,100.8L352.8,234L252,133.2c-3.6-3.6-3.6-3.6-3.6-3.6
	s-3.6,0-3.6,3.6L50.4,327.6C43.2,331.2,43.2,338.4,46.8,338.4z M687.6,1062c0,10.8-7.2,18-18,18H43.2C18,1080,0,1062,0,1036.8V763.2
	C0,738,18,720,43.2,720h158.4l0,0h97.2c10.8,0,18,7.2,18,18s-7.2,18-18,18h-75.6v288h147.6V824.4c0-10.8,7.2-18,18-18
	c10.8,0,18,7.2,18,18V1044h147.6v-36c0-10.8,7.2-18,18-18c10.8,0,18,7.2,18,18v36h79.2C680.4,1044,687.6,1051.2,687.6,1062z
	 M183.6,752.4H43.2c-3.6,0-7.2,3.6-7.2,7.2v273.6c0,7.2,3.6,10.8,7.2,10.8h140.4C183.6,1044,183.6,752.4,183.6,752.4z"/>
</svg>
