<?xml version="1.0" encoding="utf-8"?>
<!-- Generator: Adobe Illustrator 19.2.1, SVG Export Plug-In . SVG Version: 6.00 Build 0)  -->
<svg version="1.1" id="Ebene_1" xmlns="http://www.w3.org/2000/svg" xmlns:xlink="http://www.w3.org/1999/xlink" x="0px" y="0px"
	 viewBox="0 0 1093.7 1080" style="enable-background:new 0 0 1093.7 1080;" xml:space="preserve">
<style type="text/css">
	.st0{fill:#9B84BC;}
</style>
<g>
	<path class="st0" d="M1091.4,19.7c-3.4-10.3-10.3-13.7-20.5-17.1c-10.3-3.4-20.5-3.4-27.4,3.4c-10.3,3.4-13.7,13.7-17.1,20.5
		l-41.1,143.7l-24-6.8c-6.8-3.4-13.7,0-17.1,10.3l-17.1,54.7c0,3.4,0,6.8,0,10.3s3.4,6.8,6.8,6.8h3.4l-13.7,47.9
		c-44.5-61.6-99.2-116.3-164.2-154C684.3,95,595.3,71.1,506.4,71.1C225.8,74.5,0,300.3,0,577.4c0,136.9,51.3,263.5,147.1,359.3
		s222.4,147.1,359.3,147.1c280.6,0,506.4-225.8,506.4-506.4c0-51.3-6.8-102.6-24-154l47.9-150.5h3.4h3.4c3.4,0,3.4,0,6.8,0
		c3.4,0,6.8-3.4,6.8-6.8l17.1-54.7c3.4-6.8,0-13.7-10.3-17.1l-24-6.8L1088,47.1C1094.9,40.3,1094.9,30,1091.4,19.7z M858.8,539.8
		v3.4c-3.4,10.3-3.4,20.5,3.4,27.4c3.4,10.3,13.7,17.1,24,20.5c3.4,0,6.8,3.4,10.3,3.4c17.1,0,30.8-10.3,37.6-27.4v-3.4
		c10.3-6.8,17.1-17.1,20.5-27.4l20.5-61.6c6.8,34.2,10.3,71.9,10.3,106.1c0,37.6-3.4,75.3-13.7,109.5l-198.4-54.7
		c3.4-17.1,6.8-37.6,6.8-58.2c0-20.5-3.4-37.6-6.8-58.2l85.5-24l-3.4,6.8C851.9,515.8,855.4,529.5,858.8,539.8z M321.6,779.3
		c27.4,27.4,61.6,44.5,99.2,58.2l-54.7,198.4c-71.9-20.5-136.9-61.6-191.6-109.5L321.6,779.3z M260,577.4
		c0-136.9,109.5-246.3,246.3-246.3S752.7,444,752.7,577.4S643.2,823.8,506.4,823.8S260,714.3,260,577.4z M27.4,577.4
		c0-37.6,3.4-75.3,13.7-109.5l198.4,54.7c-3.4,17.1-6.8,37.6-6.8,58.2c0,20.5,3.4,37.6,6.8,58.2L41.1,693.8
		C30.8,652.7,27.4,618.5,27.4,577.4z M246.3,495.3L47.9,440.6c20.5-71.9,61.6-136.9,109.5-191.6l147.1,147.1
		C277.1,423.5,260,457.7,246.3,495.3z M321.6,375.6L174.5,228.4c54.7-51.3,119.8-89,191.6-109.5l54.7,198.4
		C386.6,331.1,352.4,351.6,321.6,375.6z M687.7,779.3l147.1,147.1c-54.7,51.3-119.8,89-191.6,109.5l-54.7-198.4
		C626.1,827.2,660.3,806.7,687.7,779.3z M708.2,762.2c27.4-27.4,44.5-61.6,58.2-99.2l198.4,54.7c-20.5,71.9-61.6,136.9-109.5,191.6
		L708.2,762.2z M869,467.9l-102.6,27.4c-13.7-37.6-30.8-71.9-58.2-99.2L855.4,249c24,24,41.1,47.9,58.2,78.7L869,467.9z
		 M834.8,231.9L687.7,379c-27.4-27.4-61.6-44.5-99.2-58.2l54.7-198.4c34.2,10.3,68.4,24,102.6,44.5
		C776.7,184,807.5,204.5,834.8,231.9z M615.9,112.1l-54.7,198.4c-17.1-3.4-37.6-6.8-58.2-6.8c-20.5,0-37.6,3.4-58.2,6.8L390,112.1
		c34.2-6.8,71.9-13.7,109.5-13.7C544,98.4,581.6,105.3,615.9,112.1z M47.9,714.3l198.4-54.7c13.7,37.6,30.8,71.9,58.2,99.2
		L157.4,905.9C106.1,854.6,68.4,789.6,47.9,714.3z M393.5,1046.2l54.7-198.4c17.1,3.4,37.6,6.8,58.2,6.8c20.5,0,37.6-3.4,58.2-6.8
		l54.7,198.4c-34.2,6.8-71.9,13.7-109.5,13.7C468.7,1056.4,431.1,1053,393.5,1046.2z M927.2,526.1c-3.4,6.8-6.8,13.7-13.7,13.7
		c-6.8,3.4-10.3,6.8-10.3,13.7v3.4c-3.4,6.8-6.8,10.3-13.7,6.8c-3.4,0-6.8-3.4-6.8-6.8c0-3.4,0-6.8,0-10.3c0,0,0-3.4,3.4-3.4
		c3.4-3.4,3.4-10.3,0-17.1s-3.4-13.7-3.4-20.5l82.1-260l44.5,13.7L927.2,526.1z M1036.7,245.6l-82.1-24l10.3-27.4l82.1,24
		L1036.7,245.6z M1067.5,40.3l-47.9,140.3l-10.3-3.4l41.1-143.7c0-3.4,3.4-3.4,3.4-6.8c3.4,0,3.4,0,6.8,0c3.4,0,3.4,3.4,6.8,3.4
		C1067.5,36.8,1067.5,36.8,1067.5,40.3z"/>
	<path class="st0" d="M715.1,700.6c3.4-3.4,3.4-10.3,0-13.7L516.6,341.4c-3.4-3.4-6.8-6.8-10.3-6.8s-10.3,3.4-10.3,6.8L294.2,686.9
		c-3.4,3.4-3.4,10.3,0,13.7c3.4,3.4,6.8,6.8,10.3,6.8h396.9C708.2,707.4,715.1,704,715.1,700.6z M331.9,680.1l174.5-304.5
		l174.5,304.5H331.9z"/>
</g>
</svg>
