<?xml version="1.0" encoding="UTF-8" standalone="no"?>
<!DOCTYPE svg PUBLIC "-//W3C//DTD SVG 1.0//EN"
"http://www.w3.org/TR/2001/REC-SVG-20010904/DTD/svg10.dtd">
<!-- Created with Sodipodi ("http://www.sodipodi.com/") --><svg height="437.5" id="svg7" version="1.0" width="437.5" x="0" xmlns="http://www.w3.org/2000/svg" xmlns:xlink="http://www.w3.org/1999/xlink" y="0" style="font-size:12;fill-rule:evenodd;">
  <path d="M 167.623 219.0909 L 4.008617 220.1542 L 4.113555 235.8817 L 167.728 234.8184 L 167.623 219.0909 z "/>
  <path d="M 204.7926 278.3166 L 205.8397 435.445 L 222.6086 435.3357 L 221.5616 278.2075 L 204.7926 278.3166 z "/>
  <path d="M 432.5037 217.8442 L 261.0006 218.9111 L 261.1108 234.6386 L 432.6138 233.5717 L 432.5037 217.8442 z "/>
  <path d="M 202.7624 8.283703 L 203.944 185.1657 L 220.7129 185.0568 L 219.531 8.174733 L 202.7624 8.283703 z "/>
  <path d="M 262.1061 292.564 L 262.2006 306.4059 L 311.7113 306.1652 L 311.53 267.3158 L 296.8639 267.4838 L 297.1229 293.2126 L 262.1061 292.564 z "/>
  <path d="M 167.3896 160.1785 L 166.8014 146.3868 L 118.5523 146.6147 L 118.7526 187.933 L 133.045 187.7625 L 132.7771 160.399 L 167.3896 160.1785 z "/>
  <path d="M 167.3091 293.278 L 167.4023 306.9546 L 119.6474 307.3324 L 119.305 268.9475 L 133.4523 268.9311 L 133.5451 294.3539 L 167.3091 293.278 z "/>
  <path d="M 261.1795 159.6369 L 261.5792 145.839 L 311.0892 145.4444 L 311.4545 186.7616 L 296.7872 186.7753 L 296.6842 159.4109 L 261.1795 159.6369 z "/>
</svg>
