<?xml version="1.0" encoding="utf-8"?>
<!-- Generator: Adobe Illustrator 19.2.1, SVG Export Plug-In . SVG Version: 6.00 Build 0)  -->
<svg version="1.1" id="Ebene_1" xmlns="http://www.w3.org/2000/svg" xmlns:xlink="http://www.w3.org/1999/xlink" x="0px" y="0px"
	 viewBox="0 0 64 64" style="enable-background:new 0 0 64 64;" xml:space="preserve">
<style type="text/css">
	.st0{fill:#9984BC;}
</style>
<g>
	<g>
		<path class="st0" d="M39,45.1c0-0.2,0-0.4-0.2-0.7c-1.2-1.5-2.2-3.1-3-4.2c0.4-1.1,0.8-2,1-2.8l5.2-0.9c0.2,0,0.4-0.2,0.6-0.4
			c0.2-0.2,0.2-0.4,0.2-0.7v-6.6c0-0.2,0-0.4-0.2-0.7c-0.4-0.2-0.6-0.4-0.8-0.4l-5-0.9c-0.2-0.9-0.6-1.8-1.2-3.1
			c0.4-0.4,0.8-1.3,1.6-2.2c0.6-0.9,1.2-1.5,1.4-2c0.2-0.2,0.2-0.4,0.2-0.7c0-0.7-1.6-2.6-4.8-5.7c-0.2-0.2-0.4-0.2-0.8-0.2
			c-0.2,0-0.4,0-0.6,0.2l-4,3.3c-1-0.4-1.8-0.9-2.4-1.1L25.4,10c0-0.2-0.2-0.4-0.4-0.7c-0.2-0.2-0.4-0.2-0.6-0.2h-6.2
			c-0.6,0-0.8,0.2-1,0.9c-0.2,1.1-0.6,3.1-0.8,5.5c-1,0.4-1.8,0.7-2.6,1.1l-3.8-3.3c-0.2-0.2-0.4-0.2-0.8-0.2
			c-0.4,0-1.4,0.7-2.6,2.2c-1.4,1.3-2.2,2.4-2.8,3.3c-0.2,0.2-0.2,0.4-0.2,0.7s0,0.4,0.2,0.7c1.2,1.5,2.2,3.1,3,4.2
			c-0.4,1.1-0.8,2-1,2.8l-5.2,0.9c-0.2,0-0.4,0.2-0.6,0.4c0,0,0,0.2,0,0.4v6.6c0,0.2,0,0.4,0.2,0.7c0.2,0.4,0.4,0.7,0.6,0.7l5,0.9
			c0.2,0.9,0.6,2,1.2,3.1c-0.4,0.4-0.8,1.3-1.6,2.2c-0.6,0.9-1.2,1.5-1.4,2c-0.2,0.2-0.2,0.4-0.2,0.7C3.9,46,5.5,48,8.7,51
			c0.2,0.2,0.4,0.2,0.8,0.2c0.2,0,0.6,0,0.6-0.2l4-3.3c1,0.4,1.8,0.9,2.6,1.1l0.8,5.5c0,0.2,0.2,0.4,0.4,0.7
			c0.2,0.2,0.4,0.2,0.6,0.2h6.2c0.6,0,0.8-0.2,1-0.9c0.2-1.1,0.6-3.1,0.8-5.7c0.8-0.2,1.8-0.7,2.6-1.1l3.8,3.3
			C33,51,33.2,51,33.6,51s1.2-0.7,2.6-2.2c1.4-1.5,2.2-2.4,2.8-3.3C38.8,45.6,39,45.3,39,45.1z M27.4,38.8c-1.6,1.8-3.6,2.6-6,2.6
			s-4.4-0.9-6-2.6c-1.6-1.8-2.4-3.9-2.4-6.6s0.8-4.8,2.4-6.6s3.6-2.6,6-2.6s4.4,0.9,6,2.6c1.6,1.8,2.6,3.9,2.6,6.6
			C29.8,34.8,29,36.8,27.4,38.8z"/>
		<path class="st0" d="M58.9,47.1c-0.2-0.7-0.6-1.3-1-2c1.2-2.6,1.6-4.4,1.6-5c0,0,0-0.2-0.2-0.2c-2.6-1.8-4-2.6-4.2-2.6H55
			c-1,1.1-2,2.4-3,3.9c-0.4,0-0.8,0-1,0s-0.6,0-1,0c-0.4-0.4-0.8-1.3-1.8-2.4c-0.8-1.1-1.4-1.8-1.6-1.8c0,0-0.4,0.2-1,0.7
			s-1.2,0.9-2,1.3c-0.6,0.4-1,0.7-1.2,0.7l-0.2,0.2c0,0.7,0.6,2.2,1.6,5c-0.4,0.7-0.8,1.1-1,2c-3.4,0.4-5,0.7-5,1.1v5
			c0,0.4,1.6,0.7,5,1.1c0.2,0.7,0.6,1.3,1,2c-1.2,2.6-1.6,4.4-1.6,5c0,0,0,0.2,0.2,0.2c2.8,1.8,4,2.6,4.2,2.6c0.2,0,0.6-0.7,1.6-1.8
			c0.8-1.1,1.4-2,1.8-2.4c0.4,0,0.8,0,1,0s0.6,0,1,0c0.4,0.4,0.8,1.3,1.8,2.4c0.8,1.1,1.4,1.8,1.6,1.8c0,0,1.4-0.9,4.2-2.6l0.2-0.2
			c0-0.7-0.6-2.2-1.6-5c0.4-0.7,0.8-1.3,1-2c3.4-0.4,5-0.7,5-1.1v-5C63.9,47.7,62.3,47.3,58.9,47.1z M54.2,53.9
			c-0.8,0.9-1.8,1.3-3,1.3s-2.2-0.4-3-1.3c-0.8-0.9-1.2-2-1.2-3.3c0-1.3,0.4-2.4,1.2-3.3c0.8-0.9,1.8-1.3,3-1.3s2.2,0.4,3,1.3
			c0.8,0.9,1.2,2,1.2,3.3C55.4,51.9,55,53,54.2,53.9z"/>
		<path class="st0" d="M58.9,10c-0.2-0.7-0.6-1.3-1-2c1.2-2.6,1.6-4.4,1.6-5c0,0,0-0.2-0.2-0.2c-2.6-1.8-4-2.6-4.2-2.6H55
			c-1,1.1-2,2.4-3,3.9c-0.4,0-0.8,0-1,0s-0.6,0-1,0c-0.4-0.4-0.8-1.3-1.8-2.4C47.4,0.6,46.8,0,46.6,0c0,0-0.4,0.2-1,0.7
			s-1.2,0.9-2,1.3c-0.6,0.4-1,0.7-1.2,0.7l-0.2,0.2c0,0.7,0.6,2.2,1.6,5c-0.4,0.7-0.8,1.1-1,2c-3.4,0.4-5,0.7-5,1.1v5
			c0,0.4,1.6,0.7,5,1.1c0.2,0.7,0.6,1.3,1,2c-1.2,2.6-1.6,4.4-1.6,5c0,0,0,0.2,0.2,0.2c2.8,1.8,4,2.6,4.2,2.6c0.2,0,0.6-0.7,1.6-1.8
			c0.8-1.1,1.4-2,1.8-2.4c0.4,0,0.8,0,1,0s0.6,0,1,0c0.4,0.4,0.8,1.3,1.8,2.4c0.8,1.1,1.4,1.8,1.6,1.8c0,0,1.4-0.9,4.2-2.6l0.2-0.2
			c0-0.7-0.6-2.2-1.6-5c0.4-0.7,0.8-1.3,1-2c3.4-0.4,5-0.7,5-1.1v-5C63.9,10.7,62.3,10.5,58.9,10z M54.2,17.1
			c-0.8,0.9-1.8,1.3-3,1.3s-2.2-0.4-3-1.3c-0.8-0.9-1.2-2-1.2-3.3s0.4-2.4,1.2-3.3c0.8-0.9,1.8-1.3,3-1.3s2.2,0.4,3,1.3
			c0.8,0.9,1.2,2,1.2,3.3C55.4,14.9,55,16,54.2,17.1z"/>
	</g>
</g>
</svg>
